<svg xmlns="http://www.w3.org/2000/svg" viewBox="0 0 100 47"><defs><style>.cls-1{fill:#fff;}</style></defs><g id="Layer_2" data-name="Layer 2"><g id="Layer_1-2" data-name="Layer 1"><path class="cls-1" d="M23.5,0h53A23.5,23.5,0,0,1,100,23.5h0A23.5,23.5,0,0,1,76.5,47h-53A23.5,23.5,0,0,1,0,23.5H0A23.5,23.5,0,0,1,23.5,0Z"/><path d="M55.56,10.33v-.16a4.21,4.21,0,0,0-1.3-2.95,4.42,4.42,0,0,0-3-1.22,4.37,4.37,0,0,0-3,1.21,4.18,4.18,0,0,0-1.31,3c.33,2.11,1.21,2.77,1.9,4.32l-9.52-.18-.18,9.23c-1.81-.69-3.1-1.92-4.63-2h-.17a4.41,4.41,0,0,0-3,1.27,4.25,4.25,0,0,0-1.24,3,4.21,4.21,0,0,0,1.24,3,4.44,4.44,0,0,0,3,1.28c2.27-.35,2.9-1.3,4.7-2l-.19,9.43,9.56.19c-.69-1.62-1.6-2.27-1.94-4.41a4.26,4.26,0,0,1,1.31-2.95,4.44,4.44,0,0,1,6.09,0,4.21,4.21,0,0,1,1.3,2.95.49.49,0,0,1,0,.17c0,1.43-1.2,2.67-1.91,4.33l9.35.18L63,14.75l-9.32-.18C54.4,13,55.53,11.75,55.56,10.33Z"/></g></g></svg>