<svg xmlns="http://www.w3.org/2000/svg" viewBox="0 0 100 47"><defs><style>.cls-1{fill:#fff;}.cls-2{fill:#231f20;}</style></defs><g id="Layer_2" data-name="Layer 2"><g id="Layer_1-2" data-name="Layer 1"><path class="cls-1" d="M23.5,0h53A23.5,23.5,0,0,1,100,23.5h0A23.5,23.5,0,0,1,76.5,47h-53A23.5,23.5,0,0,1,0,23.5H0A23.5,23.5,0,0,1,23.5,0Z"/><path class="cls-2" d="M60.44,7.42a13.89,13.89,0,0,0-3.71-2.95A13.13,13.13,0,0,0,51.4,3c-.35,0-.72,0-1.07,0A13,13,0,0,0,41,6.94a12.93,12.93,0,0,0-4,10.19c.26,3.53,2.28,6.3,3.9,8.53l.07.1c.29.39.59.78.91,1.19a20.86,20.86,0,0,1,2.79,4.34l.08.2a5.44,5.44,0,0,1,.64,2,1,1,0,0,1-.33.65,1.14,1.14,0,0,0-.31,1.22c.22.86,1.31.86,2.56.86h6.54c1,0,2.11,0,2.34-.86a1.32,1.32,0,0,0-.37-1.3,1.14,1.14,0,0,1-.28-.48c-.12-.87.81-2.83,1.73-4.29a30.26,30.26,0,0,1,1.81-2.49l.79-1,.4-.54C62,23,63.7,20.67,64,17.23A12.84,12.84,0,0,0,60.44,7.42ZM58,24l-.36.47-.63.82c-1.87,2.45-3.64,4.77-4.06,8.29H48.09c-.52-3.72-2.33-6.1-4.24-8.61-.14-.2-.29-.39-.44-.59l-.26-.34c-1.49-2-3.17-4.19-3.42-6.79a10.31,10.31,0,0,1,3.18-8.53,10.56,10.56,0,0,1,7.61-3.13c.34,0,.68,0,1,0a10.68,10.68,0,0,1,9.71,9.8c.28,3.84-1.55,6.24-3.31,8.57Z"/><path class="cls-2" d="M54.43,40.48a10.1,10.1,0,0,0-2-.13l-1.53,0-1.5,0H48.05c-.86,0-2.64,0-2.72,1.12a.89.89,0,0,0,.29.77,3.88,3.88,0,0,0,2.37.5c.42,0,.86,0,1.28,0l1.18,0h3c1.1,0,2.15,0,2.23-1S55,40.6,54.43,40.48Z"/></g></g></svg>